<svg xmlns="http://www.w3.org/2000/svg" width="192" height="192" viewBox="0 0 192 192">
  <defs>
    <linearGradient id="bg" x1="0" y1="0" x2="1" y2="1">
      <stop offset="0%" stop-color="#0f1d14" />
      <stop offset="100%" stop-color="#050806" />
    </linearGradient>
    <linearGradient id="accent" x1="0" y1="0" x2="1" y2="1">
      <stop offset="0%" stop-color="#46ff7f" />
      <stop offset="100%" stop-color="#8bff66" />
    </linearGradient>
  </defs>
  <rect x="8" y="8" width="176" height="176" rx="36" fill="url(#bg)" />
  <rect x="18" y="18" width="156" height="156" rx="30" fill="none" stroke="url(#accent)" stroke-opacity="0.45" />
  <path d="M55 132V60h33c19 0 31 9 31 25 0 10-4 18-12 22l14 25h-19l-11-21h-16v21H55zm20-37h13c7 0 11-3 11-9s-4-9-11-9H75v18z" fill="#eaf7ec" />
  <circle cx="141" cy="57" r="12" fill="url(#accent)" />
</svg>
